name ./resultDataOpenSim/trcMotMarkerGrf/sub10/grf-02-05.mot
datacolumns 19
datarows 15
range 1.56800000 1.62400000
endheader

                time	     ground_force_vx	     ground_force_vy	     ground_force_vz	     ground_force_px	     ground_force_py	     ground_force_pz	   l_ground_force_vx	   l_ground_force_vy	   l_ground_force_vz	   l_ground_force_px	   l_ground_force_py	   l_ground_force_pz	     ground_torque_x	     ground_torque_y	     ground_torque_z	   l_ground_torque_x	   l_ground_torque_y	   l_ground_torque_z	
          1.56800000	         -3.77807687	        405.08278871	        -16.11554841	          0.80508590	          0.00000000	          0.06670945	          0.00000000	          0.00000000	          0.00000000	          0.00000000	          0.00000000	          0.00000000	          0.00000000	          3.51230637	          0.00000000	          0.00000000	          0.00000000	          0.00000000	
          1.57200000	         -2.74901798	        409.63397417	        -17.22817986	          0.80514518	          0.00000000	          0.06672962	          0.00000000	          0.00000000	          0.00000000	          0.00000000	          0.00000000	          0.00000000	          0.00000000	          3.66988937	          0.00000000	          0.00000000	          0.00000000	          0.00000000	
          1.57600000	         -1.13888124	        414.95036862	        -18.14486831	          0.80506982	          0.00000000	          0.06672628	          0.00000000	          0.00000000	          0.00000000	          0.00000000	          0.00000000	          0.00000000	          0.00000000	          3.80192683	          0.00000000	          0.00000000	          0.00000000	          0.00000000	
          1.58000000	          1.15819745	        421.09172722	        -18.76593202	          0.80483658	          0.00000000	          0.06670238	          0.00000000	          0.00000000	          0.00000000	          0.00000000	          0.00000000	          0.00000000	          0.00000000	          3.90021357	          0.00000000	          0.00000000	          0.00000000	          0.00000000	
          1.58400000	          4.07336133	        428.11041299	        -19.06591383	          0.80445932	          0.00000000	          0.06665994	          0.00000000	          0.00000000	          0.00000000	          0.00000000	          0.00000000	          0.00000000	          0.00000000	          3.96479802	          0.00000000	          0.00000000	          0.00000000	          0.00000000	
          1.58800000	          7.38890433	        436.04417476	        -19.10278505	          0.80400428	          0.00000000	          0.06659587	          0.00000000	          0.00000000	          0.00000000	          0.00000000	          0.00000000	          0.00000000	          0.00000000	          4.00341812	          0.00000000	          0.00000000	          0.00000000	          0.00000000	
          1.59200000	         10.80467960	        444.90132838	        -19.00378484	          0.80354747	          0.00000000	          0.06651057	          0.00000000	          0.00000000	          0.00000000	          0.00000000	          0.00000000	          0.00000000	          0.00000000	          4.02946516	          0.00000000	          0.00000000	          0.00000000	          0.00000000	
          1.59600000	         14.01848488	        454.66009453	        -18.92997460	          0.80315259	          0.00000000	          0.06640866	          0.00000000	          0.00000000	          0.00000000	          0.00000000	          0.00000000	          0.00000000	          0.00000000	          4.05885844	          0.00000000	          0.00000000	          0.00000000	          0.00000000	
          1.60000000	         16.80145122	        465.28074460	        -19.03143393	          0.80287580	          0.00000000	          0.06629419	          0.00000000	          0.00000000	          0.00000000	          0.00000000	          0.00000000	          0.00000000	          0.00000000	          4.10628405	          0.00000000	          0.00000000	          0.00000000	          0.00000000	
          1.60400000	         19.05345769	        476.70387797	        -19.41259931	          0.80275231	          0.00000000	          0.06616718	          0.00000000	          0.00000000	          0.00000000	          0.00000000	          0.00000000	          0.00000000	          0.00000000	          4.18151433	          0.00000000	          0.00000000	          0.00000000	          0.00000000	
          1.60800000	         20.82626973	        488.84060765	        -20.11898463	          0.80277756	          0.00000000	          0.06603017	          0.00000000	          0.00000000	          0.00000000	          0.00000000	          0.00000000	          0.00000000	          0.00000000	          4.28679866	          0.00000000	          0.00000000	          0.00000000	          0.00000000	
          1.61200000	         22.30740047	        501.57777306	        -21.13928036	          0.80292997	          0.00000000	          0.06588535	          0.00000000	          0.00000000	          0.00000000	          0.00000000	          0.00000000	          0.00000000	          0.00000000	          4.41621089	          0.00000000	          0.00000000	          0.00000000	          0.00000000	
          1.61600000	         23.76547835	        514.79660694	        -22.41502547	          0.80316419	          0.00000000	          0.06573951	          0.00000000	          0.00000000	          0.00000000	          0.00000000	          0.00000000	          0.00000000	          0.00000000	          4.55723515	          0.00000000	          0.00000000	          0.00000000	          0.00000000	
          1.62000000	         25.47359759	        528.39537744	        -23.85639188	          0.80344010	          0.00000000	          0.06559692	          0.00000000	          0.00000000	          0.00000000	          0.00000000	          0.00000000	          0.00000000	          0.00000000	          4.69408909	          0.00000000	          0.00000000	          0.00000000	          0.00000000	
          1.62400000	         27.63540278	        542.30385327	        -25.36352512	          0.80372252	          0.00000000	          0.06546193	          0.00000000	          0.00000000	          0.00000000	          0.00000000	          0.00000000	          0.00000000	          0.00000000	          4.81170690	          0.00000000	          0.00000000	          0.00000000	          0.00000000	
